<?xml version="1.0" standalone="no"?>
<!DOCTYPE svg PUBLIC "-//W3C//DTD SVG 20010904//EN"
 "http://www.w3.org/TR/2001/REC-SVG-20010904/DTD/svg10.dtd">
<svg version="1.0" xmlns="http://www.w3.org/2000/svg"
 width="256.000000pt" height="256.000000pt" viewBox="0 0 256.000000 256.000000"
 preserveAspectRatio="xMidYMid meet">

<g transform="translate(0.000000,256.000000) scale(0.100000,-0.100000)"
fill="#000000" stroke="none">
<path d="M1705 1700 c-78 -17 -104 -42 -180 -166 -11 -18 -41 -59 -67 -92 -49
-62 -118 -171 -118 -186 0 -6 7 -1 16 10 15 19 15 18 11 -4 -3 -12 -1 -20 4
-16 5 3 9 0 9 -5 0 -8 7 -7 20 1 16 11 22 9 34 -7 10 -12 15 -15 16 -7 0 7 4
11 9 8 5 -3 14 1 21 9 10 12 16 13 26 4 11 -9 14 -8 14 4 0 8 15 24 33 35 19
11 44 34 56 51 27 37 23 39 -13 6 -27 -25 -67 -25 -46 0 5 6 7 15 3 18 -3 4
-12 -1 -19 -11 -12 -16 -13 -16 -10 1 1 10 16 30 32 43 26 23 27 24 4 13 -25
-12 -25 -12 -6 9 10 12 23 19 27 16 5 -3 6 2 3 11 -4 11 4 19 30 30 23 10 34
20 30 29 -4 9 3 16 18 18 20 4 19 6 -12 16 -29 10 -30 11 -7 8 15 -2 30 1 33
6 3 4 9 6 14 3 5 -3 19 -1 32 4 16 6 27 4 37 -6 15 -17 14 -19 -19 -32 -32
-13 -5 -14 38 -2 24 7 32 7 32 -4 0 -13 53 -16 66 -2 4 4 18 7 30 7 13 0 25 4
29 9 7 12 -46 3 -59 -9 -14 -14 -60 9 -73 35 -6 14 -7 25 -2 25 6 0 -1 11 -15
25 -17 16 -31 23 -43 18 -10 -3 -15 -3 -11 2 4 4 3 14 -3 22 -9 10 -8 13 1 13
10 0 10 3 1 14 -10 11 -5 16 26 24 35 9 36 10 8 10 -16 -1 -43 -4 -60 -8z"/>
<path d="M1840 1610 c8 -5 26 -10 39 -10 32 0 24 6 -19 14 -25 4 -31 3 -20 -4z"/>
<path d="M1800 1606 c0 -2 7 -7 16 -10 8 -3 12 -2 9 4 -6 10 -25 14 -25 6z"/>
<path d="M1810 1571 c0 -5 7 -12 16 -15 24 -9 28 -7 14 9 -14 17 -30 20 -30 6z"/>
<path d="M1718 1533 c7 -3 16 -2 19 1 4 3 -2 6 -13 5 -11 0 -14 -3 -6 -6z"/>
<path d="M2208 1345 c-10 -10 4 -55 17 -55 14 0 25 -22 25 -49 0 -10 11 -28
25 -41 29 -27 19 -40 -27 -35 -16 2 -27 1 -24 -3 2 -4 -14 -6 -37 -3 -23 2
-45 8 -49 14 -11 17 -17 5 -24 -46 -6 -40 -4 -47 12 -53 46 -15 86 -37 104
-56 l20 -22 0 41 c0 24 5 43 13 46 6 3 3 6 -8 6 -94 7 -136 14 -132 24 5 18
64 20 129 6 58 -12 100 -39 62 -39 -19 -1 -19 -1 0 -11 18 -11 26 -6 40 26 3
6 9 3 15 -5 10 -14 12 -13 15 20 0 9 12 15 28 15 34 1 34 1 41 55 4 27 3 37
-2 25 -8 -19 -8 -19 -15 3 -5 15 -15 22 -32 22 -21 0 -24 3 -19 23 3 12 3 17
-2 12 -12 -16 -33 -12 -47 8 -7 9 -18 17 -23 17 -5 0 -18 9 -28 20 -10 11 -22
17 -27 14 -5 -3 -17 1 -27 10 -10 9 -20 14 -23 11z m192 -186 c0 -5 -7 -9 -15
-9 -9 0 -12 6 -9 15 6 15 24 11 24 -6z m-93 -15 c-3 -3 -12 -4 -19 -1 -8 3 -5
6 6 6 11 1 17 -2 13 -5z m-144 -61 c-7 -2 -19 -2 -25 0 -7 3 -2 5 12 5 14 0
19 -2 13 -5z m68 -10 c12 -16 12 -17 -1 -7 -8 7 -24 14 -35 17 -19 4 -19 5 1
6 12 0 28 -7 35 -16z"/>
<path d="M1847 1333 c-3 -5 6 -10 19 -11 37 -3 79 -28 99 -59 23 -36 64 -73
82 -73 8 0 2 11 -15 28 -16 15 -26 34 -24 41 3 8 0 11 -6 7 -6 -3 -13 -2 -17
4 -3 5 -1 10 6 10 8 0 8 4 -1 15 -7 8 -17 12 -23 8 -6 -3 -7 -1 -3 6 8 13 -2
17 -66 26 -25 3 -49 2 -51 -2z"/>
<path d="M1810 1272 l-35 -17 43 -3 c26 -2 51 -11 63 -23 10 -10 25 -19 33
-19 8 0 17 -7 20 -16 3 -8 10 -12 16 -9 6 3 13 -1 16 -9 8 -20 21 -20 39 -2
12 12 12 15 -1 20 -9 3 -20 4 -24 1 -5 -3 -12 5 -15 17 -12 37 -36 59 -59 52
-15 -4 -17 -3 -8 4 11 7 10 10 -3 16 -26 10 -47 7 -85 -12z m67 2 c-3 -3 -12
-4 -19 -1 -8 3 -5 6 6 6 11 1 17 -2 13 -5z"/>
<path d="M751 1201 c-1 -24 2 -32 9 -25 7 7 7 19 1 35 -9 23 -10 22 -10 -10z"/>
<path d="M1312 1165 c0 -16 2 -22 5 -12 2 9 2 23 0 30 -3 6 -5 -1 -5 -18z"/>
<path d="M1418 1173 c-31 -37 -31 -47 -1 -23 18 14 32 28 32 33 1 13 -16 7
-31 -10z"/>
<path d="M1298 1104 c-5 -4 -8 -16 -8 -26 0 -11 -11 -34 -25 -52 -14 -19 -25
-46 -25 -64 0 -17 -4 -33 -9 -36 -12 -8 -2 -53 15 -67 8 -6 14 -17 14 -24 0
-7 7 -18 15 -25 12 -10 15 -9 15 7 0 10 9 43 19 73 17 47 23 55 43 52 13 -2
28 -10 34 -18 10 -12 15 -7 28 26 19 48 20 53 5 45 -12 -8 -69 14 -69 26 0 5
-6 9 -14 9 -9 0 -18 16 -23 41 -4 22 -11 37 -15 33z m12 -79 c0 -3 -9 -24 -21
-46 -11 -23 -18 -44 -15 -47 3 -3 6 0 6 7 0 7 4 9 10 6 6 -4 7 1 3 11 -4 12
-3 15 5 10 18 -11 15 -31 -7 -50 -18 -17 -19 -16 -26 12 -7 32 17 102 34 102
6 0 11 -2 11 -5z"/>
<path d="M488 1016 c-3 -81 -5 -100 -16 -140 -6 -22 -9 -50 -6 -62 8 -31 44
-39 61 -14 8 11 20 20 28 20 7 0 15 3 18 8 2 4 3 2 1 -4 -1 -6 3 -17 9 -23 18
-18 18 -81 1 -74 -9 3 -14 -2 -14 -16 0 -28 23 -27 55 3 21 20 24 28 16 48 -5
14 -17 28 -25 31 -9 4 -16 11 -16 17 0 8 6 8 20 0 11 -6 20 -7 20 -3 0 4 5 2
12 -5 7 -7 16 -12 20 -12 14 0 8 57 -7 70 -8 7 -15 18 -15 24 0 18 -46 77 -53
69 -4 -3 -16 16 -28 43 -12 27 -22 50 -23 51 0 1 -13 4 -29 8 -26 7 -27 6 -29
-39z m41 -173 c1 -18 -28 -16 -35 1 -3 8 0 25 7 38 l13 23 7 -25 c4 -14 7 -31
8 -37z"/>
<path d="M1900 1047 c-34 -15 -102 -68 -96 -74 3 -3 25 6 50 21 54 32 54 32
58 4 2 -13 11 -24 23 -27 11 -2 29 -14 40 -27 11 -13 23 -24 26 -24 4 0 23
-16 44 -36 35 -33 37 -38 32 -79 -6 -42 -6 -44 11 -27 10 9 18 24 19 32 1 8 2
20 3 25 1 6 2 40 1 77 -1 65 -2 67 -23 59 -22 -8 -38 -2 -88 31 -14 9 -37 15
-52 13 -31 -4 -32 -2 -18 26 12 21 6 23 -30 6z"/>
<path d="M2286 1029 c-15 -17 -29 -40 -31 -51 -3 -12 -9 -26 -15 -32 -5 -5
-10 -24 -10 -40 0 -27 -19 -77 -20 -52 0 5 -10 0 -23 -12 -13 -12 -27 -19 -32
-15 -4 5 -5 3 -2 -4 4 -6 2 -13 -4 -15 -6 -2 -12 -21 -14 -43 -7 -77 -83 -185
-131 -185 -16 0 -40 -14 -66 -40 -45 -43 -61 -48 -84 -25 -13 13 -13 15 -1 15
8 0 21 8 28 18 7 9 9 14 5 10 -5 -4 -15 -3 -21 2 -8 7 -21 7 -37 1 -15 -5 -31
-5 -41 0 -9 6 -17 7 -17 3 0 -3 -7 -1 -15 6 -8 7 -22 9 -31 6 -8 -3 -22 1 -30
9 -17 16 -44 10 -44 -11 0 -10 -6 -11 -26 -3 -15 5 -29 7 -31 5 -3 -3 -15 5
-27 17 -12 12 -33 29 -46 38 -18 12 -24 24 -22 44 1 15 -3 34 -9 41 -6 8 -9
20 -6 29 4 8 2 17 -3 20 -6 4 -10 -6 -10 -22 l-1 -28 -23 29 c-17 20 -25 24
-29 15 -3 -8 -6 4 -6 26 -1 30 -4 36 -11 25 -7 -11 -10 -5 -11 25 l-1 40 -10
-35 c-5 -19 -14 -39 -19 -44 -5 -6 -9 -26 -10 -45 0 -33 -1 -34 -11 -13 -6 12
-15 22 -20 22 -5 0 -6 -5 -3 -10 3 -5 2 -10 -4 -10 -19 0 25 -83 74 -139 28
-31 84 -98 125 -150 40 -51 89 -103 107 -116 l34 -22 -77 -58 c-50 -38 -73
-60 -66 -67 6 -6 17 -6 32 2 21 11 26 8 60 -31 21 -24 36 -48 35 -54 -2 -5 -6
-22 -9 -38 l-6 -27 75 0 75 0 -2 43 c-3 38 -1 42 20 41 12 0 22 0 22 1 0 16
-44 123 -56 137 -19 20 -21 19 60 38 68 16 115 56 154 133 18 35 50 84 71 109
22 24 56 72 76 106 22 38 43 62 53 62 21 0 37 25 52 81 6 24 25 63 41 86 30
43 36 59 19 48 -12 -7 -12 2 -1 30 7 17 8 17 15 -8 10 -40 22 -33 23 16 0 23
-1 36 -4 30 -2 -7 -9 -13 -13 -13 -5 0 -2 16 6 36 20 47 14 51 -20 13z m-279
-496 c-10 -18 -32 -46 -47 -63 -15 -16 -25 -30 -22 -30 4 0 -1 -5 -11 -11 -18
-11 -41 -3 -32 11 3 4 -5 6 -17 2 -16 -4 -7 9 30 41 28 25 61 51 72 57 11 6
19 14 16 18 -2 4 3 8 13 8 17 0 17 -2 -2 -33z m-297 -447 c0 -3 -4 -8 -10 -11
-5 -3 -10 -1 -10 4 0 6 5 11 10 11 6 0 10 -2 10 -4z"/>
<path d="M2346 1034 c-4 -10 -1 -14 6 -12 15 5 23 28 10 28 -5 0 -13 -7 -16
-16z"/>
<path d="M1484 868 c-5 -7 -3 -8 6 -3 9 5 10 2 6 -13 -4 -11 -2 -23 3 -27 6
-3 9 0 6 7 -3 7 0 20 5 28 9 13 11 13 20 0 8 -13 10 -12 10 3 0 20 -44 24 -56
5z"/>
<path d="M1854 870 c-48 -11 -60 -21 -40 -32 11 -6 21 -6 29 0 18 14 68 12 74
-4 3 -8 9 -11 15 -8 5 3 21 -6 35 -21 23 -22 25 -29 15 -46 -10 -16 -9 -19 3
-19 26 0 57 39 49 63 -10 35 -21 44 -72 57 -69 18 -74 18 -108 10z"/>
<path d="M1411 844 c0 -11 3 -14 6 -6 3 7 2 16 -1 19 -3 4 -6 -2 -5 -13z"/>
<path d="M841 818 c-8 -18 -19 -36 -24 -39 -6 -4 -7 -14 -4 -23 15 -40 130 4
123 47 -3 22 -38 47 -66 47 -8 0 -21 -15 -29 -32z"/>
<path d="M1430 820 c0 -5 5 -10 11 -10 5 0 7 5 4 10 -3 6 -8 10 -11 10 -2 0
-4 -4 -4 -10z"/>
<path d="M1490 779 c0 -5 5 -7 10 -4 6 3 10 1 10 -5 0 -6 5 -8 11 -4 8 4 7 9
-2 15 -19 12 -29 11 -29 -2z"/>
<path d="M450 685 c0 -2 7 -8 15 -15 12 -10 15 -10 15 2 0 8 -7 15 -15 15 -8
0 -15 -1 -15 -2z"/>
<path d="M1111 600 c-45 -38 -89 -70 -99 -70 -10 0 -22 -4 -27 -9 -6 -5 -61
-12 -122 -16 -122 -8 -127 -6 -96 43 17 27 17 27 -3 10 -11 -10 -31 -18 -45
-18 -22 -1 -23 -2 -6 -14 9 -7 17 -16 17 -19 0 -3 -20 -17 -45 -32 -32 -18
-45 -31 -41 -43 17 -62 16 -82 -4 -122 l-22 -42 26 -27 c27 -29 25 -39 -20
-93 -12 -15 -24 -33 -27 -40 -5 -16 -47 18 -47 39 0 9 -7 12 -24 7 -19 -4 -26
-1 -31 18 -4 12 -40 73 -81 134 -40 61 -79 123 -85 138 -24 52 -93 46 -147
-11 -44 -47 -71 -92 -107 -175 -21 -48 -35 -68 -50 -70 -18 -3 -20 -11 -23
-75 l-3 -73 666 0 c366 0 665 4 665 8 0 23 -75 274 -109 364 -54 143 -58 169
-32 211 43 70 22 64 -78 -23z"/>
<path d="M386 583 c-11 -12 -6 -19 14 -20 11 -1 20 2 20 7 0 10 -26 20 -34 13z"/>
<path d="M1895 580 c-3 -5 -1 -10 4 -10 6 0 11 5 11 10 0 6 -2 10 -4 10 -3 0
-8 -4 -11 -10z"/>
<path d="M1855 236 c-8 -76 -4 -102 16 -98 11 1 20 -13 30 -45 l15 -48 144 -2
145 -2 -65 30 c-223 105 -208 95 -240 165 -16 35 -31 64 -34 64 -2 0 -7 -29
-11 -64z"/>
</g>
</svg>
